<svg width="14" height="14" viewBox="0 0 14 14" fill="none" xmlns="http://www.w3.org/2000/svg">
<g id="Group 427321406">
<path id="Vector" d="M13 9C13 9.35362 12.8595 9.69276 12.6095 9.94281C12.3594 10.1929 12.0203 10.3333 11.6667 10.3333H3.66667L1 13V2.33333C1 1.97971 1.14048 1.64057 1.39052 1.39052C1.64057 1.14048 1.97971 1 2.33333 1H11.6667C12.0203 1 12.3594 1.14048 12.6095 1.39052C12.8595 1.64057 13 1.97971 13 2.33333V9Z" stroke="#333333" stroke-width="1.2" stroke-linecap="round" stroke-linejoin="round"/>
<path id="Vector_2" d="M4.96 6.16005H6.63995V7.84C6.63995 8.04399 6.79598 8.20002 6.99998 8.20002C7.20397 8.20002 7.36 8.044 7.36 7.84V6.16005H9.03995C9.24394 6.16005 9.39998 6.00402 9.39998 5.80002C9.39998 5.59603 9.24395 5.44 9.03995 5.44H7.36V3.76005C7.36 3.55606 7.20397 3.40002 6.99998 3.40002C6.79598 3.40002 6.63995 3.55605 6.63995 3.76005V5.44H4.96C4.75601 5.44 4.59998 5.59603 4.59998 5.80002C4.59998 6.00402 4.76797 6.16005 4.96 6.16005Z" fill="#333333"/>
</g>
</svg>