<svg xmlns="http://www.w3.org/2000/svg" width="24" height="24" viewBox="0 0 24 24" fill="none">
  <path d="M8.21982 18H14.0982C14.6696 18 15.0991 17.8527 15.3866 17.5582C15.6742 17.2675 15.818 16.8294 15.818 16.2442V13.6552H14.9111V16.2218C14.9111 16.4977 14.8373 16.7102 14.6899 16.8593C14.5461 17.0084 14.3323 17.0829 14.0484 17.0829H8.26959C7.98571 17.0829 7.77005 17.0084 7.62258 16.8593C7.4788 16.7102 7.40691 16.4977 7.40691 16.2218V7.78378C7.40691 7.50792 7.4788 7.29543 7.62258 7.14632C7.77005 6.99348 7.98571 6.91705 8.26959 6.91705H14.0484C14.3323 6.91705 14.5461 6.99348 14.6899 7.14632C14.8373 7.29543 14.9111 7.50792 14.9111 7.78378V10.3448H15.818V7.76142C15.818 7.17987 15.6742 6.74185 15.3866 6.44734C15.0991 6.14911 14.6696 6 14.0982 6H8.21982C7.64839 6 7.21889 6.14911 6.93134 6.44734C6.64378 6.74185 6.5 7.17987 6.5 7.76142V16.2442C6.5 16.8294 6.64378 17.2675 6.93134 17.5582C7.21889 17.8527 7.64839 18 8.21982 18ZM11.6373 12.4473H17.3055L18.135 12.4138L17.7424 12.794L16.8576 13.6328C16.7691 13.7111 16.7249 13.8117 16.7249 13.9348C16.7249 14.0541 16.7599 14.1528 16.83 14.2311C16.9037 14.3094 16.9995 14.3486 17.1175 14.3486C17.2244 14.3486 17.3221 14.3057 17.4106 14.2199L19.2134 12.3299C19.2687 12.274 19.3055 12.2199 19.324 12.1678C19.3461 12.1118 19.3571 12.0559 19.3571 12C19.3571 11.9441 19.3461 11.89 19.324 11.8378C19.3055 11.7819 19.2687 11.726 19.2134 11.6701L17.4106 9.78006C17.3221 9.69059 17.2244 9.64585 17.1175 9.64585C16.9995 9.64585 16.9037 9.685 16.83 9.76328C16.7599 9.83784 16.7249 9.93476 16.7249 10.0541C16.7249 10.1808 16.7691 10.2833 16.8576 10.3616L17.7424 11.206L18.135 11.5862L17.3055 11.5471H11.6373C11.523 11.5471 11.4217 11.5918 11.3332 11.6813C11.2484 11.7707 11.206 11.877 11.206 12C11.206 12.123 11.2484 12.2293 11.3332 12.3187C11.4217 12.4045 11.523 12.4473 11.6373 12.4473Z" fill="#666666"/>
  <path d="M8.21982 18H14.0982C14.6696 18 15.0991 17.8527 15.3866 17.5582C15.6742 17.2675 15.818 16.8294 15.818 16.2442V13.6552H14.9111V16.2218C14.9111 16.4977 14.8373 16.7102 14.6899 16.8593C14.5461 17.0084 14.3323 17.0829 14.0484 17.0829H8.26959C7.98571 17.0829 7.77005 17.0084 7.62258 16.8593C7.4788 16.7102 7.40691 16.4977 7.40691 16.2218V7.78378C7.40691 7.50792 7.4788 7.29543 7.62258 7.14632C7.77005 6.99348 7.98571 6.91705 8.26959 6.91705H14.0484C14.3323 6.91705 14.5461 6.99348 14.6899 7.14632C14.8373 7.29543 14.9111 7.50792 14.9111 7.78378V10.3448H15.818V7.76142C15.818 7.17987 15.6742 6.74185 15.3866 6.44734C15.0991 6.14911 14.6696 6 14.0982 6H8.21982C7.64839 6 7.21889 6.14911 6.93134 6.44734C6.64378 6.74185 6.5 7.17987 6.5 7.76142V16.2442C6.5 16.8294 6.64378 17.2675 6.93134 17.5582C7.21889 17.8527 7.64839 18 8.21982 18ZM11.6373 12.4473H17.3055L18.135 12.4138L17.7424 12.794L16.8576 13.6328C16.7691 13.7111 16.7249 13.8117 16.7249 13.9348C16.7249 14.0541 16.7599 14.1528 16.83 14.2311C16.9037 14.3094 16.9995 14.3486 17.1175 14.3486C17.2244 14.3486 17.3221 14.3057 17.4106 14.2199L19.2134 12.3299C19.2687 12.274 19.3055 12.2199 19.324 12.1678C19.3461 12.1118 19.3571 12.0559 19.3571 12C19.3571 11.9441 19.3461 11.89 19.324 11.8378C19.3055 11.7819 19.2687 11.726 19.2134 11.6701L17.4106 9.78006C17.3221 9.69059 17.2244 9.64585 17.1175 9.64585C16.9995 9.64585 16.9037 9.685 16.83 9.76328C16.7599 9.83784 16.7249 9.93476 16.7249 10.0541C16.7249 10.1808 16.7691 10.2833 16.8576 10.3616L17.7424 11.206L18.135 11.5862L17.3055 11.5471H11.6373C11.523 11.5471 11.4217 11.5918 11.3332 11.6813C11.2484 11.7707 11.206 11.877 11.206 12C11.206 12.123 11.2484 12.2293 11.3332 12.3187C11.4217 12.4045 11.523 12.4473 11.6373 12.4473Z" stroke="#666666"/>
</svg>