<svg xmlns="http://www.w3.org/2000/svg" width="16" height="16" viewBox="0 0 16 16" fill="none">
  <path fill-rule="evenodd" clip-rule="evenodd" d="M15.5 4.68618V11.313C15.5 13.7683 13.9642 15.5 11.5103 15.5H4.48158C2.02763 15.5 0.5 13.7683 0.5 11.313V4.68618C0.5 2.23089 2.03575 0.5 4.48158 0.5H11.5103C13.9642 0.5 15.5 2.23089 15.5 4.68618Z" stroke="#666666" stroke-linecap="round" stroke-linejoin="round"/>
  <path d="M2.55682 11.6224L3.79843 10.3111C4.2299 9.85333 4.94902 9.83138 5.40731 10.2623C5.42113 10.2761 6.16869 11.0363 6.16869 11.0363C6.61966 11.4956 7.35666 11.5029 7.81576 11.0525C7.84583 11.0232 9.7123 8.7582 9.7123 8.7582C10.1933 8.17365 11.0571 8.08991 11.6421 8.57203C11.6811 8.60455 13.4444 10.4151 13.4444 10.4151" stroke="#666666" stroke-linecap="round" stroke-linejoin="round"/>
  <path fill-rule="evenodd" clip-rule="evenodd" d="M6.64486 5.68926C6.64486 6.47707 6.00699 7.11528 5.21962 7.11528C4.43224 7.11528 3.79437 6.47707 3.79437 5.68926C3.79437 4.90146 4.43224 4.26324 5.21962 4.26324C6.00699 4.26406 6.64486 4.90146 6.64486 5.68926Z" stroke="#666666" stroke-linecap="round" stroke-linejoin="round"/>
</svg>