<svg xmlns="http://www.w3.org/2000/svg" width="53" height="14" viewBox="0 0 53 14" fill="none">
  <path d="M32.9273 6.06302C32.6872 4.54494 31.8737 3.17698 30.6546 2.24099C29.4354 1.30503 27.9034 0.872659 26.3749 1.03281C24.8462 1.19307 23.4374 1.9338 22.4387 3.10224C21.4402 4.27059 20.9281 5.77766 21.0081 7.31255C21.0882 8.84744 21.7542 10.293 22.8689 11.3513C23.9835 12.4095 25.4618 12.9997 26.999 13.0001C28.0281 12.9988 29.0397 12.7347 29.9381 12.2326C30.1082 12.1376 30.2147 11.959 30.2175 11.764C30.2202 11.5691 30.1186 11.3876 29.9512 11.2879C29.7838 11.1881 29.5758 11.1852 29.4057 11.2803C28.3522 11.8735 27.1168 12.0571 25.9363 11.796C24.7558 11.5348 23.7132 10.8473 23.0082 9.86505C22.3033 8.88287 21.9855 7.67506 22.116 6.47315C22.2465 5.27128 22.8159 4.15971 23.7152 3.35148C24.227 2.88715 24.8318 2.53705 25.4895 2.32446C26.1471 2.11198 26.8424 2.04184 27.5293 2.11882C28.5013 2.22429 29.4197 2.61758 30.1668 3.24818C30.9139 3.87887 31.4556 4.71834 31.7226 5.65874C31.9895 6.59915 31.9696 7.59806 31.6652 8.52702C31.5961 8.72033 31.4684 8.88734 31.2999 9.00459C31.1315 9.12193 30.9306 9.18384 30.7253 9.18156C30.4605 9.18129 30.2066 9.076 30.0194 8.88872C29.8321 8.70153 29.7268 8.44768 29.7266 8.18288V4.81809C29.7266 4.62323 29.6226 4.44316 29.4538 4.34573C29.285 4.24829 29.0771 4.24829 28.9083 4.34573C28.7396 4.44316 28.6355 4.62323 28.6355 4.81809V4.83225C28.1662 4.47129 27.5912 4.2746 26.9991 4.27259C26.0985 4.26693 25.2532 4.70615 24.7402 5.44625C24.2272 6.18644 24.1126 7.13198 24.4341 7.97323C24.7555 8.81447 25.4715 9.44273 26.3474 9.65221C27.2232 9.86177 28.1461 9.62545 28.8133 9.02076C28.9756 9.39249 29.2424 9.70908 29.5814 9.93181C29.9205 10.1546 30.3169 10.274 30.7226 10.2753C31.1583 10.2798 31.5841 10.1462 31.9393 9.89382C32.2943 9.64143 32.5604 9.28312 32.6994 8.87029C32.997 7.96574 33.075 7.0037 32.9273 6.06302ZM26.9988 8.63651C26.5647 8.63651 26.1485 8.46411 25.8416 8.1572C25.5347 7.85039 25.3623 7.43418 25.3623 7.00017C25.3623 6.56617 25.5347 6.14995 25.8416 5.84314C26.1485 5.53623 26.5647 5.36383 26.9988 5.36383C27.4328 5.36383 27.8491 5.53623 28.1559 5.84314C28.4629 6.14995 28.6353 6.56617 28.6353 7.00017C28.6353 7.43418 28.4629 7.85039 28.1559 8.1572C27.8491 8.46411 27.4328 8.63651 26.9988 8.63651Z" fill="#999999" fill-opacity="0.8"/>
  <path d="M7 1.00012C10.3091 1.00012 13 3.69104 13 7.00012C13 10.3092 10.3091 13.0001 7 13.0001C3.69092 13.0001 1 10.3092 1 7.00012C1 3.69104 3.69092 1.00012 7 1.00012ZM7 1.78278C4.1139 1.78278 1.78261 4.11407 1.78261 7.00017C1.78261 9.88627 4.1139 12.2176 7 12.2176C9.8861 12.2176 12.2174 9.88627 12.2174 7.00017C12.2174 4.11407 9.8861 1.78278 7 1.78278ZM9.087 4.39147C9.59123 4.39147 10 4.80027 10 5.30449C10 5.80872 9.59123 6.21751 9.087 6.21751C8.58278 6.21751 8.17398 5.80872 8.17398 5.30449C8.17398 4.80027 8.58278 4.39147 9.087 4.39147ZM4.91309 4.39147C5.41731 4.39147 5.82611 4.80027 5.82611 5.30449C5.82611 5.80872 5.41731 6.21751 4.91309 6.21751C4.40887 6.21751 4.00007 5.80872 4.00007 5.30449C4.00007 4.80027 4.40887 4.39147 4.91309 4.39147ZM9.91037 8.17408C10.0361 8.18136 10.1508 8.25242 10.2202 8.37789C10.2862 8.50408 10.2773 8.66466 10.1957 8.78139C9.49622 9.82771 8.32443 10.5219 7.00005 10.5219C5.67567 10.5219 4.50385 9.82771 3.8044 8.78139C3.69021 8.61071 3.73962 8.3535 3.9104 8.23932C4.08117 8.12514 4.34239 8.17454 4.45657 8.34532C5.02149 9.19037 5.94762 9.73939 7.00005 9.73939C8.05247 9.73939 8.97858 9.19049 9.54352 8.34532C9.64943 8.22104 9.78464 8.16681 9.91037 8.17409V8.17408Z" fill="#999999" fill-opacity="0.8"/>
  <path d="M9.81037 8.07958V8.06813L9.91615 8.07425C10.0781 8.08362 10.2227 8.17571 10.3077 8.32951L10.3077 8.3295L10.3088 8.33151C10.3916 8.4898 10.3811 8.68991 10.2783 8.83779C9.56171 9.90914 8.36012 10.6219 7.00005 10.6219C5.63965 10.6219 4.43778 9.90879 3.72128 8.837C3.57679 8.62101 3.63751 8.30148 3.85482 8.15619C4.07057 8.01194 4.39421 8.07212 4.5397 8.28974L4.45657 8.34532L4.5397 8.28974C5.08776 9.10957 5.98394 9.63939 7.00005 9.63939C8.01615 9.63939 8.91231 9.10968 9.46039 8.28975L9.45982 8.28937L9.46741 8.28046C9.56441 8.16663 9.68587 8.09933 9.81037 8.07958ZM7 0.900122C10.3643 0.900122 13.1 3.63581 13.1 7.00012C13.1 10.3644 10.3643 13.1001 7 13.1001C3.63569 13.1001 0.9 10.3644 0.9 7.00012C0.9 3.63581 3.63569 0.900122 7 0.900122ZM7 1.88278C4.16912 1.88278 1.88261 4.16929 1.88261 7.00017C1.88261 9.83104 4.16912 12.1176 7 12.1176C9.83087 12.1176 12.1174 9.83104 12.1174 7.00017C12.1174 4.16929 9.83087 1.88278 7 1.88278ZM9.087 4.29147C9.64645 4.29147 10.1 4.74504 10.1 5.30449C10.1 5.86395 9.64645 6.31751 9.087 6.31751C8.52755 6.31751 8.07398 5.86395 8.07398 5.30449C8.07398 4.74504 8.52755 4.29147 9.087 4.29147ZM4.91309 4.29147C5.47254 4.29147 5.92611 4.74504 5.92611 5.30449C5.92611 5.86395 5.47254 6.31751 4.91309 6.31751C4.35364 6.31751 3.90007 5.86395 3.90007 5.30449C3.90007 4.74504 4.35364 4.29147 4.91309 4.29147Z" stroke="#999999" stroke-opacity="0.8" stroke-width="0.2"/>
  <circle cx="47" cy="7.00012" r="5.46667" stroke="#999999" stroke-opacity="0.8" stroke-width="1.06667"/>
  <path d="M47 4.42871C46.8465 4.42871 46.722 4.55315 46.722 4.70668V6.72217H44.7066C44.553 6.72217 44.4286 6.84661 44.4286 7.00014C44.4286 7.15367 44.553 7.27811 44.7066 7.27811H46.722V9.2936C46.722 9.44713 46.8465 9.57157 47 9.57157C47.1535 9.57157 47.278 9.44713 47.278 9.2936V7.27811H49.2935C49.447 7.27811 49.5714 7.15367 49.5714 7.00014C49.5714 6.84661 49.447 6.72217 49.2935 6.72217H47.278V4.70668C47.278 4.55315 47.1535 4.42871 47 4.42871Z" fill="#999999" fill-opacity="0.8"/>
  <path d="M47 4.29538C46.7728 4.29538 46.5887 4.47951 46.5887 4.70668V6.58883H44.7066C44.4794 6.58883 44.2953 6.77297 44.2953 7.00014C44.2953 7.22731 44.4794 7.41145 44.7066 7.41145H46.5887V9.2936C46.5887 9.52077 46.7728 9.7049 47 9.7049C47.2272 9.7049 47.4113 9.52077 47.4113 9.2936V7.41145H49.2935C49.5206 7.41145 49.7048 7.22731 49.7048 7.00014C49.7048 6.77297 49.5206 6.58883 49.2935 6.58883H47.4113V4.70668C47.4113 4.47951 47.2272 4.29538 47 4.29538Z" stroke="#999999" stroke-opacity="0.8" stroke-width="0.266667"/>
</svg>