  <svg
        xmlns="http://www.w3.org/2000/svg"
        width="24"
        height="24"
        viewBox="0 0 24 24"
        fill="none"
      >
        <rect x="3" y="2" width="18" height="20" fill="white" />
        <path
          d="M7 13C6.44772 13 6 13.4477 6 14C6 14.5523 6.44771 15 7 15H17C17.5523 15 18 14.5523 18 14C18 13.4477 17.5523 13 17 13H7Z"
          fill="#E8E8E8"
        />
        <path
          d="M6 18C6 17.4477 6.44772 17 7 17H11C11.5523 17 12 17.4477 12 18C12 18.5523 11.5523 19 11 19H7C6.44772 19 6 18.5523 6 18Z"
          fill="#E8E8E8"
        />
        <path
          fill-rule="evenodd"
          clip-rule="evenodd"
          d="M2 4C2 2.34315 3.34315 1 5 1H19C20.6569 1 22 2.34315 22 4V20C22 21.6569 20.6569 23 19 23H5C3.34315 23 2 21.6569 2 20V4ZM5 3H19C19.5523 3 20 3.44771 20 4V20C20 20.5523 19.5523 21 19 21H5C4.44772 21 4 20.5523 4 20V4C4 3.44772 4.44771 3 5 3Z"
          fill="#999999"
        />
        <rect x="6" y="5" width="12" height="6" rx="1.2" fill="#E8E8E8" />
      </svg>