<svg xmlns="http://www.w3.org/2000/svg" width="24" height="24" viewBox="0 0 24 24" fill="none">
  <path d="M9.05233 13.1928C9.23214 12.8339 9.33333 12.4288 9.33333 12C9.33333 11.5712 9.23214 11.1661 9.05233 10.8072M9.05233 13.1928C8.61452 14.0667 7.71065 14.6667 6.66667 14.6667C5.19391 14.6667 4 13.4728 4 12C4 10.5272 5.19391 9.33333 6.66667 9.33333C7.71065 9.33333 8.61452 9.93326 9.05233 10.8072M9.05233 13.1928L14.9477 16.1405M9.05233 10.8072L14.9477 7.8595M14.9477 7.8595C15.3855 8.73341 16.2893 9.33333 17.3333 9.33333C18.8061 9.33333 20 8.13943 20 6.66667C20 5.19391 18.8061 4 17.3333 4C15.8606 4 14.6667 5.19391 14.6667 6.66667C14.6667 7.09544 14.7679 7.50058 14.9477 7.8595ZM14.9477 16.1405C14.7679 16.4994 14.6667 16.9046 14.6667 17.3333C14.6667 18.8061 15.8606 20 17.3333 20C18.8061 20 20 18.8061 20 17.3333C20 15.8606 18.8061 14.6667 17.3333 14.6667C16.2893 14.6667 15.3855 15.2666 14.9477 16.1405Z" stroke="#666666" stroke-width="1.5" stroke-linecap="round" stroke-linejoin="round"/>
</svg>