<svg xmlns="http://www.w3.org/2000/svg" width="15" height="14" viewBox="0 0 15 14" fill="none">
  <path d="M0.261414 4.44016L6.76174 7.94045C6.90974 8.02015 7.08787 8.02015 7.23588 7.94045L13.7362 4.44016C13.8425 4.38279 13.9245 4.28881 13.9669 4.17563C14.0093 4.06256 14.0093 3.93777 13.9669 3.82471C13.9245 3.71154 13.8425 3.61755 13.7362 3.56018L7.23588 0.0598935C7.08788 -0.0198017 6.90975 -0.0198017 6.76174 0.0598935L0.261414 3.56018C0.155158 3.61755 0.0731251 3.71154 0.0307115 3.82471C-0.011702 3.93778 -0.011702 4.06257 0.0307115 4.17563C0.0731251 4.28881 0.155161 4.38279 0.261414 4.44016ZM6.9989 1.06788L12.4446 4.00012L6.9989 6.93237L1.55319 4.00012L6.9989 1.06788Z" fill="#666666"/>
  <path d="M13.2617 6.5603L6.99858 9.93258L0.735405 6.5603C0.578811 6.48195 0.392759 6.49121 0.244751 6.58475C0.0967523 6.67817 0.00835655 6.84224 0.0118167 7.01715C0.0151652 7.19217 0.109813 7.35267 0.261272 7.4403L6.7616 10.9406C6.9096 11.0203 7.08773 11.0203 7.23574 10.9406L13.7361 7.4403C13.8875 7.35268 13.9822 7.19218 13.9855 7.01715C13.989 6.84225 13.9006 6.67818 13.7526 6.58475C13.6046 6.49121 13.4185 6.48195 13.2619 6.5603H13.2617Z" fill="#666666"/>
  <path d="M13.2617 9.56002L6.99858 12.9323L0.735405 9.56002C0.578811 9.48166 0.392759 9.49093 0.244751 9.58446C0.0967523 9.67789 0.00835655 9.84196 0.0118167 10.0169C0.0151652 10.1919 0.109813 10.3524 0.261272 10.44L6.7616 13.9403C6.9096 14.02 7.08773 14.02 7.23574 13.9403L13.7361 10.44C13.8569 10.3795 13.9482 10.2727 13.9891 10.1437C14.0299 10.0148 14.0168 9.8748 13.9526 9.75571C13.8884 9.63662 13.7788 9.54855 13.6487 9.51171C13.5185 9.47488 13.379 9.49229 13.2619 9.56004L13.2617 9.56002Z" fill="#666666"/>
</svg>