<svg xmlns="http://www.w3.org/2000/svg" width="16" height="12" viewBox="0 0 16 12" fill="none">
  <path d="M1.26096 6.34849L7.19359 0.415999C7.27256 0.338441 7.3661 0.27728 7.46882 0.236043C7.57154 0.194805 7.68141 0.174307 7.79209 0.175728H8.70514L1.87694 6.92514L6.47713 11.5645C6.39883 11.6429 6.30587 11.705 6.20355 11.7474C6.10123 11.7898 5.99156 11.8116 5.88081 11.8116C5.77006 11.8116 5.66039 11.7898 5.55807 11.7474C5.45575 11.705 5.36279 11.6429 5.28449 11.5645L1.26096 7.5411C1.18263 7.46281 1.12049 7.36984 1.0781 7.26753C1.03571 7.16521 1.01389 7.05555 1.01389 6.9448C1.01389 6.83405 1.03571 6.72438 1.0781 6.62206C1.12049 6.51975 1.18263 6.42678 1.26096 6.34849Z" fill="#666666" stroke="#333333" stroke-width="0.0982935"/>
  <path d="M12.3361 3.43913C12.0153 3.43913 11.7551 3.179 11.7551 2.85812C11.7551 2.53723 12.0153 2.2771 12.3361 2.2771C12.657 2.2771 12.9172 2.53723 12.9172 2.85812C12.9172 3.179 12.657 3.43913 12.3361 3.43913Z" fill="#666666" stroke="#333333" stroke-width="0.0982935"/>
  <path d="M3.61241 6.36589L9.54504 0.429035C9.62293 0.34911 9.71598 0.285531 9.81875 0.242024C9.92152 0.198516 10.0319 0.175954 10.1435 0.175659H14.1714C14.3951 0.175659 14.6095 0.264489 14.7676 0.422606C14.9258 0.580724 15.0146 0.795177 15.0146 1.01879V5.04659C15.0143 5.15715 14.9921 5.26655 14.9494 5.36851C14.9067 5.47047 14.8442 5.56298 14.7656 5.64071L8.82858 11.5776C8.75028 11.6559 8.65732 11.718 8.555 11.7604C8.45268 11.8028 8.34301 11.8246 8.23226 11.8246C8.12151 11.8246 8.01184 11.8028 7.90952 11.7604C7.8072 11.718 7.71424 11.6559 7.63594 11.5776L3.61241 7.55414C3.45555 7.39619 3.36752 7.18262 3.36752 6.96002C3.36752 6.73741 3.45555 6.52384 3.61241 6.36589ZM8.20823 10.9616L14.1365 5.04659V1.04937H10.161L4.22839 6.93817L8.20823 10.9616Z" fill="#666666" stroke="#333333" stroke-width="0.0982935"/>
</svg>