  <svg
          xmlns="http://www.w3.org/2000/svg"
          width="14"
          height="16"
          viewBox="0 0 14 16"
          fill="none"
        >
          <path
            d="M6.99998 10.4C7.74664 10.4 8.41998 10.2165 9.01998 9.8496C9.61998 9.4832 10.0933 9 10.44 8.4C9.97331 8.01333 9.44664 7.71653 8.85998 7.5096C8.27331 7.3032 7.65331 7.2 6.99998 7.2C6.34664 7.2 5.72664 7.3032 5.13998 7.5096C4.55331 7.71653 4.02664 8.01333 3.55998 8.4C3.90664 9 4.37998 9.4832 4.97998 9.8496C5.57998 10.2165 6.25331 10.4 6.99998 10.4ZM6.99998 6.4C7.43998 6.4 7.81678 6.2432 8.13038 5.9296C8.44344 5.61653 8.59998 5.24 8.59998 4.8C8.59998 4.36 8.44344 3.98347 8.13038 3.6704C7.81678 3.3568 7.43998 3.2 6.99998 3.2C6.55998 3.2 6.18344 3.3568 5.87038 3.6704C5.55678 3.98347 5.39998 4.36 5.39998 4.8C5.39998 5.24 5.55678 5.61653 5.87038 5.9296C6.18344 6.2432 6.55998 6.4 6.99998 6.4ZM6.99998 13.88C8.62664 12.3867 9.83331 11.0299 10.62 9.8096C11.4066 8.58987 11.8 7.50667 11.8 6.56C11.8 5.10667 11.3365 3.91653 10.4096 2.9896C9.48318 2.0632 8.34664 1.6 6.99998 1.6C5.65331 1.6 4.51651 2.0632 3.58958 2.9896C2.66318 3.91653 2.19998 5.10667 2.19998 6.56C2.19998 7.50667 2.59331 8.58987 3.37998 9.8096C4.16664 11.0299 5.37331 12.3867 6.99998 13.88ZM6.99998 16C4.85331 14.1733 3.25011 12.4765 2.19038 10.9096C1.13011 9.3432 0.599976 7.89333 0.599976 6.56C0.599976 4.56 1.24344 2.96667 2.53038 1.78C3.81678 0.593333 5.30664 0 6.99998 0C8.69331 0 10.1832 0.593333 11.4696 1.78C12.7565 2.96667 13.4 4.56 13.4 6.56C13.4 7.89333 12.8701 9.3432 11.8104 10.9096C10.7501 12.4765 9.14664 14.1733 6.99998 16Z"
            fill="#666666"
          />
        </svg>