<svg xmlns="http://www.w3.org/2000/svg" width="12" height="14" viewBox="0 0 12 14" fill="none">
  <path fill-rule="evenodd" clip-rule="evenodd" d="M6.00085 1.31709C7.14162 1.31709 8.07056 2.24525 8.07056 3.38603C8.07056 4.52768 7.14162 5.45649 6.00085 5.45649C4.85994 5.45649 3.93113 4.52768 3.93113 3.38603C3.93113 2.24525 4.85994 1.31709 6.00085 1.31709ZM6.00085 6.64749C7.79903 6.64749 9.26146 5.18427 9.26146 3.38622C9.26146 1.58883 7.79912 0.126587 6.00085 0.126587C4.20267 0.126587 2.74023 1.58893 2.74023 3.38622C2.74023 5.1844 4.2027 6.64749 6.00085 6.64749Z" fill="#666666"/>
  <path fill-rule="evenodd" clip-rule="evenodd" d="M6.00044 7.27893C2.69225 7.27893 0 9.97039 0 13.2784C0 13.6071 0.266702 13.8738 0.595416 13.8738C0.924117 13.8738 1.19083 13.6071 1.19083 13.2784C1.19083 10.6268 3.34877 8.46976 6.00044 8.46976C8.65205 8.46976 10.8091 10.6268 10.8091 13.2784C10.8091 13.6071 11.0759 13.8738 11.4045 13.8738C11.7332 13.8738 12 13.6071 12 13.2784C12 9.9702 9.30857 7.27893 6.00044 7.27893Z" fill="#666666"/>
</svg>